<?xml version="1.0" encoding="UTF-8"?>
<svg version="1.1" viewBox="0 0 2048 919" width="1280" height="1280" xmlns="http://www.w3.org/2000/svg">
<path transform="translate(987,14)" d="m0 0h93l33 4 16 3 17 5 24 9 23 12 11 7 16 11 10 8 7 7 8 7 12 13 10 14 9 12 2 5 9 15 4 9 3 8 2 2 2 10 4 10 2 6 2 10 2 8 1 10 2 2 1 5v134l-1 8-2 2-2 13-2 3-2 10-3 1v9l-3 5-1 8-3 3-2 7-2 2-3 7-7 14-2 2-2 5-8 11-13 16-7 8-5 5-13 12-5 4-12 3 1 10 3 3 1 7 3 2 1 13 2 3v21l-1 2h-2v13l-3 2-1 10-4 1v7l-3 3-11 14-14 10-9 6-7-1-4-5-1-8-3-2-2-5-14-17-13-12-14-9-16-8-17-6-10-2-61-1h-52l-34-4-18-4-25-7-22-10-14-8-19-12-12-10-11-9-9-9-7-8-9-10-9-12-4-5-6-11-3-4-1-5-6-8-2-7-2-2-2-7-2-3-2-9-4-15-2-4-2-13-2-8-1-25-1-54 1-53 1-18 3-11 1-13 3-2 1-9 3-4 1-9 3-1 1-7 3-1 1-9 3-1 2-6 2-2 1-5 3-2 3-7 4-6 8-11 11-12 12-14 11-10 11-9 14-10 15-9 15-8 29-11 22-6 23-4 11-1zm-35 113-14 3-16 5-17 8-14 9-13 12-14 14-2 5-2 2-2 5-2 2-3 7-3 8-2 2-2 10-2 3-1 39v83l1 18 3 4 1 9 3 1 1 8 3 4 6 11 8 11 8 9 11 9 9 7 16 10 21 7 16 4 98 1 28 2 29 5 27 7 35 13 15 10 13 10 10 6-2-6-9-8-18-10-30-18-17-6-21-5-4-2-1-2 10-2 18-8 11-6 11-8 12-10 7-8 11-15 5-8 2-7 6-12 4-17 2-54 1-4-1-9-1-32-1-16-3-10-1-13-4-2-1-7-2-3-2-6h-2l-1-7-3-4-3-5-9-11-2-3h-2l-2-4-16-13-11-7-11-5-15-6-14-3-8-1z" fill="#44A980"/>
<path transform="translate(1208,58)" d="m0 0 5 2 16 12 8 8 8 7 12 13 10 14 9 12 2 5 9 15 4 9 3 8 2 2 2 10 4 10 2 6 2 10 2 8 1 10 2 2 1 5v134l-1 8-2 2-2 13-2 3-2 10-3 1v9l-3 5-1 8-3 3-2 7-2 2-3 7-7 14-2 2-2 5-8 11-13 16-7 8-5 5-13 12-5 4-12 3 1 10 3 3 1 7 3 2 1 13 2 3v21l-1 2h-2v13l-3 2-1 10-4 1v7l-3 3-11 14-14 10-9 6-7-1-4-5v-8h1l1 7 2 1 1-4h2l3-14v-28l-3-12-6-14-9-12-8-8-15-11-17-10-20-8-14-4-22-6-4-2-9-2-12-4-2-2-7-2 1-5 2-2v-5l-6-5-5-3-3-3-10-3-5-1-1-3 4-1 3 2 1-2h2v-2h2v-2h3v-2l-59-1-7-1-1-2 101 1 28 2 29 5 27 7 35 13 15 10 13 10 9 6-3-6-7-6-18-10-30-18-17-6-21-5-5-3v-2l15-5 21-10 10-7 11-9 12-12 11-16 4-6 2-7 6-12 4-17 2-54 1-4-1-9-1-32-1-16-3-10-1-13-3-2-2-7-2-3-1-5-3-3-2-6-5-8-9-11-1-3h-2l-5-5-8-7-12-9-15-7-15-6-14-3-8-1h-136l-14 3-16 5-17 8-14 9-13 12-13 13-2 5-2 2-2 5-2 2-3 7-3 8-2 2-2 10-2 3-1 39v83l1 18 3 4 1 9 3 3 2 7 6 10 5 9 11 12 5 5 10 9h-3l-13-11-9-10-9-13-8-15-7-19-3-15-1-11v-96l2-14 4-15 10-23 12-17 11-12 14-11 14-9 13-6 15-5 17-3 1-1 23-1 1-3 10-2 7-2 4-2 12-2h23l2-4 4 1 7-3 1-3-6-1-2-5-3-2 2-7 10-8 12-5 19-2 23 1 23 5 20 7 21 11 18 12 11 9 9 8v2h2l7 8 11 14 11 19 7 15 4 9 3 4 4 13 4 15 3 19 1 3-1 2v12l-1 3v8l-1 10v23l-1 29-2 21-4 21-7 20-11 23-11 17-7 9-11 12-10 10-14 11-1 2 2 3h-2v2l6 2 12 8 10 9 8 11 5-1 10-9 12-11 11-11 12-16 2-3v-3l-5 3-1 2h-2l-2 4-4 4h-2l2-5 8-9 1-2h2v-7l8-18 1-11 1-3h2l1-4-3-3v-5l4-4 4-19-1-11 2-6-4-1h-2-4v-2h-2l1-4 5-2 1-3-2-3v-7l3-3 6-1 3-3v-12l-1-6-5 1-4-3 1-4 2-5-4-4 1-4 5-4v-2h-2l-3-4-2-5 1-6h3l2-4v-4l-4-3-3-12 5-3h2l1 6 6 1 1-4-5-5-1-5-3-1 1-5h4l2-4h2l2-2-2-10-1-1-2 7-5-2 1-6 1-2 5 1v-9l-5-13 2-11-3-1-2-5v-10l-4-2-1-9-2-3-2-10-4-9-10-19-10-14 2-2 5 4 7 8v2h2l4 5v2l6 2-3-7-10-13-8-10-9-10-13-13-14-11-7-5z" fill="#76BC7C"/>
<path transform="translate(935,17)" d="m0 0h12l-1 3-20 5-5 3h2l9-1 6-3 12 1 13-2 4 2v1 5l4 4-4 2-6-1-1-2h-28l-2 5 4-1v-3l6 1-3 7 3 6-1 6-7 11-6 5-6 3 1 2-22 7-11 5-12 6-4 1v2l-11 7-7 6h-2v2h-2l-2 6-4 4-3 6-1-2-8 7-9 11-9 13-4 5-5 9-8 16-4 11-2 9-4 16-2 22v15l-1 9 1 7v7l1 2v11l-1 10 1 7h-2l2 20 3 15 2 12 1 11 2 4 2 12 5 16 10 19 3 6 3 1 4 7 9 12 5 5 3-3h2l6 12v3 2h2l1 2 3 1 3 5 5 3 1 3 4 2 13 8 18 8 18 6 9 5 1 5h-2l2 7-2 3h2l6 10-4 2h6l-1 8-2 3-10 3h-5l3 1v2l11 1v2h7l2 1 13 2 2 1v2l2 1h-21l-25-5-26-8-36-16-18-12-16-13-12-11-12-13-9-11-7-9-4-5-6-11-3-4-1-5-6-8-2-7-2-2-2-7-2-3-2-9-4-15-2-4-2-13-2-8-1-25-1-54 1-53 1-18 3-11 1-13 3-2 1-9 3-4 1-9 3-1 1-7 3-1 1-9 3-1 2-6 2-2 1-5 3-2 3-7 4-6 8-11 11-12 12-14 11-10 11-9 14-10 15-9 15-8 29-11 22-6z" fill="#3D8877"/>
<path transform="translate(1012,176)" d="m0 0h14l14 2 13 4 16 8 10 9 8 8 8 12 1 1v6l-11 8-16 9-6 4-9 3-6-4-2-5-8-7-6-3-4-1h-13l-7 3-3 1-2 5-2 2 1 5 2 6 4 2 17 7 24 7 21 10 11 8 7 5 8 11 1 4 3 2v10l3 1 1 3v25l-2 7-2 10-4 4-7 9-6 5-15 10-16 5-15 3h-28l-20-5-18-8-11-8-7-8-5-4-3-5-2-5-3-1-1-7 8-6 17-11 11-6 8-2 4 2 1 6 4 2 3 5 14 7 10 2h13l11-4 6-5h2v-12l-8-7-12-5-13-4-12-4-21-9-13-7-12-10-2-5-3-3v-5l-3-2v-47l3-2v-8l5-5 5-6 11-9 14-8 15-4z" fill="#408A79"/>
<path transform="translate(1360,760)" d="m0 0 15 1 4 2 1 2 1 13 3 3 2 11 2 7 1 11h2l2 17 3 3 1 3h5l5-12 1-12h2l1-2 1-12 3-3 1-11 3-1 1-11 6-8 22-1 11 1 5 7 1 13 3 2 1 10 3 3v13l4 1 1 14 3 2v9l6 1 2-6 3-2 1-16 3-9 1-12h3l1-10 3-5 1-11 5-3 2-1 13-1h12l4 1 1 4 2 1-3 1v12l-3 2-1 12-3 2-1 14-3 1-1 11-3 2-1 15-4 1v15l-4 1v14l-3 1-1 13-3 2-1 9-4 1v6l-4 3-17 1h-11l-8-5-1-14-3-4-1-7-3-2-2-11-2-6-1-13-3-1-2-10-2-3-4-1-2 5-1 2-1 13-2 1-2-1v13l-3 2-1 12h-4v13l-4 1v11l-6 4-5 1-4-1h-9l-9 1-7-3-2-4-2-1-1-17-3-3-1-10-3-3-2-15-2-4-1-7-3-2-1-12-3-1-1-15h-2l-2-13v-2l-3-1-1-8-3-2-1-9-3-3 1-5 4-4z" fill="#3F8B79"/>
<path transform="translate(947,455)" d="m0 0 101 1 28 2 29 5 27 7 21 8v2l9 3 11 6 14 10 10 9 9 10 8 16 4 14 1 6v23l-4 16-5 12-9 14-8 9-12 9-9 6-4-2-1-2 2-4h2l3-14v-28l-3-12-6-14-9-12-8-8-15-11-17-10-20-8-14-4-22-6-4-2-9-2-12-4-2-2-7-2 1-5 2-2v-5l-6-5-5-3-3-3-10-3-5-1-1-3 4-1 3 2 1-2h2v-2h2v-2h3v-2l-59-1-7-1z" fill="#75BB7B"/>
<path transform="translate(946,760)" d="m0 0h17l5 2 7 10 3 7 6 8 10 15 6 10 7 10 1 3 7-1-1-13-2-10v-13l2-9v-9l-1-3 3-6 23-1 8 1 1 1v140l-6 2h-17l-8-1-5-6v-7l-4-2-1-6-3-1-2-6-6-8-8-11-5-9-3-4-4-8-5-6h-5l-1 2v15l3 1v52l-6 4-16 1-7 1-7-2v-141l1-1z" fill="#3E8978"/>
<path transform="translate(232,759)" d="m0 0h25l12 3 16 8 11 8 8 10 3 5 2 5 3 2 1 8 3 2 1 26-1 18-4 1v9l-3 2-2 6-2 1-3 5-8 9-9 7-14 7-10 4-5 1h-26l-21-7-14-11-8-8-8-11v-2l-3-1v-6l-4-1-1-16h-2l-1-4v-8l1-4h2l1-18 3-1 1-10 4-1v-6l3-2 3-5h2l2-4 8-7 11-7 10-4zm6 34-15 6-7 5-1 4-3 1v5l-4 1-1 7-3 2v14l3 3 1 7 3 3 2 5 6 7 9 5 9 3h12l13-5 10-7 4-5v-5h3l3-11 1-3v-8l-2-2-1-9-4-2-1-5-4-5-11-7-10-4z" fill="#408A79"/>
<path transform="translate(1618,759)" d="m0 0h26l12 3 12 6 10 7 13 12 3 6 2 2 2 7 2 3v7l4 1v40l-4 2v8l-3 2-2 6-2 1-2 5-9 10-11 7-14 8-8 3-7 1h-23l-13-4-16-8-6-4-13-13-3-4-1-4-4-3v-5l-3-2-1-14-2-7v-14l2-8 1-12 3-2 2-5 2-2 2-5 11-12 8-7 16-8 9-3zm9 34-16 5-10 9-2 5-3 1-1 3 1 5-4 2v20l3 3 2 6h2l2 5 4 5 9 6 9 3h14l10-3 11-8 6-9 1-4 3-2 1-17-1-9-3-2-2-6-2-2-2-5-11-7-11-4zm42 36v4h2l-1-4z" fill="#418B7A"/>
<path transform="translate(1749,759)" d="m0 0h50l12 2 11 6 10 9 8 11 1 7 2 2 1 4v23l-4 1v9l-3 2-2 5-11 10 1 5 3 3 1 3 3 2v6l4 1 1 7 3 2 1 4 3 2v6l4 2 1 3 3 2v4l-7 3-6-1h-13l-3 1h-9l-6-5-2-7-2-1-1-6-4-2v-5l-3-3-1-4-3-1-1-7v-2h-2l-5-5h-9l-5 3h-2l2 6 1 1v7l-1 5v15l1 7-6 3-24 1-5-2-4-5 4-1v-136l1-1zm23 34-4 3v23l3 5 2 1h19l10-2 5-4 5-11-3-3-2-7-6-4-3-1z" fill="#418B7A"/>
<path transform="translate(1898,759)" d="m0 0 11 2 3 2 1 16 1 6-1 2v13l1 7 4 1 5-3 4-6 14-19 6-7 9-12 8-1h17l15 1 4 2-1 4-4 2v2l-5 5-20 26-8 8-9 11-1 7 2 5 9 9 4 6 7 8 8 12 13 18 8 10 4 4v2l-5 2-32 1-8-4-7-9-4-7-4-4v-2h-2l-6-8-3-3v-6l-4-2-3-3-8 1-2 5h-3v10l-3 2v21l2 3-5 4-7 2h-17l-10-5v-2l3-1 1-128h-3l2-4 4-4z" fill="#3E8A78"/>
<path transform="translate(643,760)" d="m0 0 22 1 2 1 2 6 3 2 1 13 3 2v10l4 1v8l4 1 1 9 3 1v10l4 2 1 8 3 1v11l4 1 1 9 3 1v12l4 1 1 9 3 2v8l4 3 1 9-2 2h-16l-4 1h-7l-8-4v-5l-4-1-1-9-3-2-1-4-11-1h-33l-7 5v8l-4 2v8l-6 3h-7l-6-1-5 1h-12l-4-4 1-5 2-2 1-6 3-2 2-10 2-2 1-8 3-1 1-11 3-3 2-6 2-1 1-11 3-3 1-8 3-1 1-11 4-2v-8h3l1-10 3-3 1-8 3-1 1-12 6-5zm1 59-4 5v12l-4 1v8l4 2h13l3-2v-11l-1-2h-3v-11l-3-2z" fill="#3F8A79"/>
<path transform="translate(402,759)" d="m0 0h27l12 3 16 8 11 9 8 8 4 6v6l-18 9-8 5-5-1-8-9-16-8-3-1h-10l-15 5-8 6-2 4-2 1-2 5-2 2-2 11-1 2v9l2 3 1 7 3 2 2 5 11 10 7 3 7 1h11l10-3 12-9v-5l4-3h7l13 8 12 6v8l-10 12-13 10-14 7-11 4-5 1h-23l-13-4-19-9-13-13v-2h-2l-2-4-4-3v-5l-3-2-1-6-3-2-3-18v-10l3-20h3l1-8 3-3 2-5 7-9 10-10 13-8 15-5z" fill="#408A79"/>
<path transform="translate(1146,759)" d="m0 0h24l8 1 2 2v31l-3 2h-10l-4-1h-35l-3 2v17l4 1h46l1 1v31l-9 3-11-1h-28l-3 1v18l1 2 4 1h11l36-2 3 3 1 29-3 4-3 1h-7l-2-1h-58l-2 1h-14l-3-5-1-4 3-2v-17l-1-26v-77l-2-4 1-5 4-5z" fill="#3E8A78"/>
<path transform="translate(81,759)" d="m0 0h26l10 3 11 6 11 11 4 6 1 1v5l-8 6-10 7-5 3-8-1-7-8-7-4h-10l-4 2-2 5h-3v2l3 1 3 5 10 4 20 7 19 10 8 9 2 5 3 2v33l-3 1-2 6-5 6-11 7-14 6-6 1h-24l-12-4-16-8-8-7v-4l-3-2-2-5-3-3 10-10 16-9h6l1 5 4 1 2 7 10 4h14l7-3 2-2 1-4 3-1 1-3-4-2-2-3-30-10-16-8-11-7-1-1v-5l-4-1-1-13v-11l1-15 3-2 4-7 10-7 13-6z" fill="#418C7A"/>
<path transform="translate(1247,105)" d="m0 0 6 4 7 8v2h2l4 5v2l6 2 1-2 12 22 11 27 7 24 4 24 1 11 1 24v74l-1 21-3 21-6 23-7 20-12 25-8 14-5 7-2-2-5 3-1 2h-2l-2 4-4 4h-2l2-5 8-9 1-2h2v-7l8-18 1-11 1-3h2l1-4-3-3v-5l4-4 4-19-1-11 2-6-4-1h-2-4v-2h-2l1-4 5-2 1-3-2-3v-7l3-3 6-1 3-3v-12l-1-6-5 1-4-3 1-4 2-5-4-4 1-4 5-4v-2h-2l-3-4-2-5 1-6h3l2-4v-4l-4-3-3-12 5-3h2l1 6 6 1 1-4-5-5-1-5-3-1 1-5h4l2-4h2l2-2-2-10-1-1-2 7-5-2 1-6 1-2 5 1v-9l-5-13 2-11-3-1-2-5v-10l-4-2-1-9-2-3-2-10-4-9-10-19-10-14z" fill="#73BA7A"/>
<path transform="translate(1224,759)" d="m0 0h26l66 1v30l-7 5-10-1h-14l-4 2-1 106-10 2-9 1h-9l-7-4-1-1v-9l1-10v-83l-1-5-18 1-9 1-8-4-1-1v-28l4-2z" fill="#408B79"/>
<path transform="translate(751,760)" d="m0 0h23l5 5v4h-3l1 77 1 21 3 3h19l16-1h14l5 6v2h-3v26l-4 2h-7l-4-1h-68l-5-2-2-3 1-20v-116l1-2z" fill="#3D8977"/>
<path transform="translate(534,759)" d="m0 0 12 1 5 5v8l-1 5v92l-1 31-7 3-6 1h-15l-8-5-1-5h2v-11l1-17 1-104 8-3z" fill="#438D7B"/>
<path transform="translate(1208,58)" d="m0 0 5 2 16 12 8 8 8 7 12 13 10 14 9 12 2 5 9 15 4 9 3 8 2 2 2 10 4 10 2 6 2 10 2 8 1 10 2 2 1 5v134l-1 8-2 2-2 13-2 3-2 10-3 1v9l-3 5-1 8-3 3-2 7-2 2-3 7-7 14-2 2-2 5-8 11-13 16-7 8-5 5-13 12-5 4-12 3 1 10 3 3 1 7 3 2 1 13 2 3v21l-1 2h-2v13l-3 2-1 10-4 1v7l-3 3-11 14-14 10-9 6-7-1-4-5v-8h1l1 7 4 4 5-2 13-9 8-7 9-12 8-16 4-14 1-5v-23l-4-17-6-14-8-11-10-10-14-10-10-6-13-6 3-1 12 5 17 11 8 7 11 7-3-6-7-6-18-10-15-9-13-8 2-1 19 10 22 13 10 8 7 8 5 7 5-1 10-9 12-11 11-11 12-16 9-13 8-14 11-23 10-30 5-25 1-9 1-21v-74l-1-24-3-25-5-21-7-21-11-25-12-21-10-13-8-10-9-10-13-13-14-11-7-5z" fill="#FDFDFD"/>
<path transform="translate(950,125)" d="m0 0h133l21 3 16 5 19 9 1 2-6-2-21-9-17-4-8-1h-136l-14 3-16 5-17 8-14 9-13 12-13 13-2 5-2 2-2 5-2 2-3 7-3 8-2 2-2 10-2 3-1 39v83l1 18 3 4 1 9 3 3 2 7 6 10 5 9 11 12 5 5 10 9h-3l-13-11-9-10-9-13-8-15-7-19-3-15-1-11v-96l2-14 4-15 10-23 12-17 11-12 14-11 14-9 13-6 15-5z" fill="#FDFDFD"/>
<path transform="translate(1224,759)" d="m0 0h26l66 1v30l-7 5-10-1h-14l-4 2-1 106-10 2-9 1h-9l-7-4 2-1 30 1v-109l2-1h34v-30l-103 1v28l31 1 2 2-17 1-9 1-8-4-1-1v-28l4-2z" fill="#FDFDFD"/>
<path transform="translate(1539,761)" d="m0 0 2 4 2 1-3 1v12l-3 2-1 12-3 2-1 14-3 1-1 11-3 2-1 15-4 1v15l-4 1v14l-3 1-1 13-3 2-1 9-4 1v6l-4 3-17 1h-11l-8-5v-12h1l1 11 2 1 27 1 5-1 5-14 11-39 8-31z" fill="#FDFDFD"/>
<path transform="translate(1680,778)" d="m0 0 5 3 7 8 3 5 3 8 2 3v7l4 1v40l-4 2v8l-3 2-2 6-2 1-2 5-9 10-11 7-14 8-8 3-7 1h-23l-13-4-10-5 2-1 16 6 5 1h20l16-4 17-10 12-11 10-16 5-13 1-7v-25l-5-15-7-14-6-7-2-1z" fill="#FDFDFD"/>
<path transform="translate(288,773)" d="m0 0 4 2 5 4 7 9 3 5 2 5 3 2 1 8 3 2 1 26-1 18-4 1v9l-3 2-2 6-2 1-3 5-8 9-9 7-14 7-10 4-5 1h-26l-21-7-10-8h3l10 6 14 5 5 1h21l15-4 15-8 8-6 9-10 8-13 5-13 1-9v-21l-3-12-5-12-9-13-8-8z" fill="#FDFDFD"/>
<path transform="translate(534,759)" d="m0 0 12 1 5 5v8l-1 5v92l-1 31-7 3-6 1h-15l-8-5-1-5 2 1 1 3 3 1 28 1v-127l1-10h-2v-3h-21v-1z" fill="#F9FBF9"/>
<path transform="translate(1081,287)" d="m0 0 5 2 10 13 1 4 3 2v10l3 1 1 3v25l-2 7-2 10-4 4-7 9-6 5-15 10-16 5-15 3h-28l-20-5-4-3 9 2 14 3h29l19-5 11-5 10-6 12-11 7-14 3-9 1-7v-15l-4-15-6-12-9-10z" fill="#FDFDFD"/>
<path transform="translate(856,539)" d="m0 0 6 2 15 7 27 9 23 5 28 3 105 1 16 2 15 4 13 5 4 3-5-1-11-4-13-4-5-1-61-1h-52l-34-4-18-4-25-7-22-10-6-4z" fill="#FDFDFD"/>
<path transform="translate(1044,761)" d="m0 0 4 1v140l-6 2h-17l-8-1-1-3h28z" fill="#FDFDFD"/>
<path transform="translate(932,762)" d="m0 0h1v139h30v-73l1-5 6 4-4 2-1 2v15l3 1v52l-6 4-16 1-7 1-7-2z" fill="#FDFDFD"/>
<path transform="translate(744,781)" d="m0 0h1v119l85 1v-31l5 5v2h-3v26l-4 2h-7l-4-1h-68l-5-2-2-3 1-20z" fill="#FDFDFD"/>
<path transform="translate(840,152)" d="m0 0 1 2h2l1-2v2h2v5l-3 2h-3v2l7-1-1 6-4 8-4 2-1 9h2v2h-3l-3 12-2 3v-2h-7v-3h2l-1-4 3-3 4-1-1-4-1-3-3-3v-3l-3-1 1-5 3-2 4 1 2 2v3l-2 2v4h2l3-6 3-2v-5l-5-3-1-1v-6l2-2h3l-1-4z" fill="#3B8776"/>
<path transform="translate(130,828)" d="m0 0 5 2 8 9 2 5 3 2v33l-3 1-2 6-5 6-11 7-14 6-6 1h-24l-12-4-16-8-8-7 2-3 7 8 16 8 12 3h21l16-5 10-6 8-8 5-11 1-4v-19l-6-12-5-6z" fill="#FDFDFD"/>
<path transform="translate(1438,823)" d="m0 0h2l3 5h-3l-2 5-1 2-1 13-2 1-2-1v13l-3 2-1 12h-4v13l-4 1v11l-6 4-5 1-4-1h-9l-9 1-7-3-2-5h2l1 4h30l3 1 3-10 13-43 6-20z" fill="#FCFCFC"/>
<path transform="translate(468,859)" d="m0 0 9 3 3 2v8l-10 12-13 10-14 7-11 4-5 1h-23l-13-4-19-9-5-6 4 2 10 6 14 6 9 2h20l15-4 14-7 10-8 7-7 7-10v-2l-9-5z" fill="#FDFDFD"/>
<path transform="translate(2e3 761)" d="m0 0 5 2-1 4-4 2v2l-5 5-20 26-8 8-9 11-1 11-4-5-1-5 14-17 11-14 7-8 10-13 5-5z" fill="#FCFCFC"/>
<path transform="translate(1822,768)" d="m0 0 5 3 9 10 4 6 1 7 2 2 1 4v23l-4 1v9l-3 2-2 5-11 10 1 5 3 3 1 3 3 2v6l4 1v7l-3-4-11-19-1-7 10-10 7-14 2-7v-17l-4-12-7-11-7-6z" fill="#FDFDFD"/>
<path transform="translate(405,792)" d="m0 0h18l12 5 3 3-6-2-10-4h-10l-15 5-8 6-2 4-2 1-2 5-2 2-2 11-1 2v9l2 3 1 7 3 2 2 5 8 7-2 1-8-7-6-9-4-10v-11l3-12 6-9 8-8 8-4z" fill="#FDFDFD"/>
<path transform="translate(1171,868)" d="m0 0h6l3 3 1 29-3 4-3 1h-7l-2-1h-58l-2 1h-14l-2-5 87 1v-30l-6-2z" fill="#FDFDFD"/>
<path transform="translate(630,876)" d="m0 0 38 1 2 2h-43l-7 5v8l-4 2v8l-6 3h-7l-6-1-5 1h-12l-3-4h30l3 1 3-9 6-15 2-1z" fill="#FDFDFD"/>
<path transform="translate(126,768)" d="m0 0 4 2 9 9 4 6 1 1v5l-8 6-10 7-5 3-8-1-7-8-7-4h-10l-4 2-2 5h-3v2l3 1 1 4-6-5 1-7 5-4 5-1h8l7 3 6 5 5 5 8-5 17-10 1-2-8-11-7-7z" fill="#FDFDFD"/>
<path transform="translate(1952,832)" d="m0 0 7 6 5 6 9 11 7 10 13 18 8 11 6 6v2l-5 2-32 1-8-4-2-4 4 3 13 1h26l-4-6-10-13-8-11-10-14-12-15-7-8z" fill="#FDFDFD"/>
<path transform="translate(233,792)" d="m0 0h18l10 4 1 2-12-4h-12l-15 6-5 4h-2l-1 4-2 1-1 5-3 1-1 7-3 2v14l3 3 1 7 3 3 2 5 5 7-4-2-8-11-5-12v-15l6-14 9-10 12-6z" fill="#FDFDFD"/>
<path transform="translate(1620,792)" d="m0 0h18l10 4-3 1-8-3h-10l-16 5-10 9-2 5h-3v8l-3 2v20l3 3 1 5 3 3 4 5-1 2-9-10-4-9-1-6v-12l4-11 6-9 7-6 10-5z" fill="#FDFDFD"/>
<path transform="translate(1171,814)" d="m0 0 5 1v31l-9 3-11-1h-28l-3 1v20l-2-1-1-3v-16l2-4h46l2 1v-17l1-14z" fill="#FDFDFD"/>
<path transform="translate(1224,759)" d="m0 0h26l63 1v1l-103 1v28l31 1 2 2-17 1-9 1-8-4-1-1v-28l4-2z" fill="#83C5A9"/>
<path transform="translate(1771,855)" d="m0 0h13v1l-12 2-4 2 2 6 1 1v7l-1 5v15l1 7-6 3-24 1-5-2v-2l30-1v-42z" fill="#FDFDFD"/>
<path transform="translate(1923,853)" d="m0 0 5 2-4 2-3 1-2 5h-3v10l-3 2v21l2 3-5 4-7 2h-17l-10-5v-2h3v2l31 1v-30l3-7 8-10z" fill="#FDFDFD"/>
<path transform="translate(1176,760)" d="m0 0 4 2v31l-3 2h-10l-4-1h-35l-3 2v18h-2l-1-3v-18l2-2h52z" fill="#FDFDFD"/>
<path transform="translate(732,215)" d="m0 0h1v150h-1l-1-25-1-54 1-53z" fill="#FDFDFD"/>
<path transform="translate(1066,189)" d="m0 0 4 2 8 7 9 9 8 12 1 1v6l-11 8-16 9-6 4-9 3-3-3 7-3 35-20-1-4-6-10-11-12-9-8z" fill="#FDFDFD"/>
<path transform="translate(774,761)" d="m0 0 5 4v4h-3l1 77 1 23-3-1-1-2z" fill="#FDFDFD"/>
<path transform="translate(1249,481)" d="m0 0 3 1-6 7-14 14-8 7-8 6-4-1-2-4 1-2 8-1 1-2 2-1 3-3 8-7 13-12z" fill="#71B97A"/>
<path transform="translate(1089,771)" d="m0 0 3 1 1 6-1 16v16l1 28v57h-3l1-1v-17l-1-26v-77z" fill="#FCFCFC"/>
<path transform="translate(1374,761)" d="m0 0 5 2 1 2 1 13 3 3 2 11 2 7 1 11h2l2 17 3 3 1 3 4 2-2 1-1 5-3-3-3-8-3-12-11-43-2-12h-2z" fill="#FDFDFD"/>
<path transform="translate(463,776)" d="m0 0 4 2 9 9 4 6v6l-18 9-8 5-5-1-8-9h3l5 6 4-1 23-12-1-5-6-8z" fill="#FCFCFC"/>
<path transform="translate(1438,823)" d="m0 0h2l3 5h-3l-2 5-1 2-1 13-2 1-2-1v13l-3 2-1 12h-5l2-10 9-30z" fill="#FDFDFD"/>
<path transform="translate(476,864)" d="m0 0 2 1-2 5-8 10-8 8-14 9-14 5-8 2h-20l-5-1v-1l24-1 12-3 13-5 11-8 8-7 8-11z" fill="#4AAB7F"/>
<path transform="translate(1457,761)" d="m0 0 3 1 4 6 1 13 3 2 1 10 3 3v13l4 1v14l-2-3-2-9-2-5-3-12-5-16-3-13z" fill="#FDFDFD"/>
<path transform="translate(294,878)" d="m0 0 3 1-10 10-16 9-11 4-8 2h-21l-5-1v-1l26-1 11-3 13-5 11-8z" fill="#48AA7F"/>
<path transform="translate(1844,891)" d="m0 0 4 2 1 3 3 2v4l-7 3-6-1h-13l-3 1h-9l-4-5h38l-4-7z" fill="#FDFDFD"/>
<path transform="translate(676,795)" d="m0 0 4 1v8l4 1 1 9 3 1v10l4 2 1 8 3 1v7l-2 2-7-19-8-21z" fill="#FDFDFD"/>
<path transform="translate(1773,791)" d="m0 0h22l6 2-3 1h-26l-3 2v23l1 4-3-1-1-2v-26l1-2z" fill="#FDFDFD"/>
<path transform="translate(711,890)" d="m0 0 5 3 1 9-2 2h-16l-4 1h-7l-8-4 1-3v2l33 1z" fill="#FDFDFD"/>
<path transform="translate(235,790)" d="m0 0h8l4 2-14 1-11 4-8 6-6 8-5 12v15l3 7-1 3-4-8v-19l5-12 7-8 5-5 12-5z" fill="#4DAC7E"/>
<path transform="translate(1012,227)" d="m0 0h13l10 3-3 1-4-1h-13l-7 3-3 1-2 5-2 2 1 5 2 6-4-4-2-4 1-9 7-6z" fill="#FDFDFD"/>
<path transform="translate(408,790)" d="m0 0h7l4 2-14 1-11 4-10 9-6 9-3 12v14l-2-2v-16l3-10 5-8 7-7 12-6z" fill="#4BAC7E"/>
<path transform="translate(309,804)" d="m0 0 2 3 3 12v21l-2 12-6 14-8 11v-3l6-10 5-12 3-16-1-22-2-6z" fill="#47AA7F"/>
<path transform="translate(1952,832)" d="m0 0 7 6 5 6 9 11 7 10 13 18 2 5-5-5-9-12-10-14-12-15-7-8z" fill="#FBFCFB"/>
<path transform="translate(1618,791)" d="m0 0h15v1l-13 1-11 4-9 7-6 9-4 11v18l-2-4v-17l3-8 6-10 8-6 6-4z" fill="#4CAC7E"/>
<path transform="translate(1909,762)" d="m0 0 3 1 1 16 1 6-1 2v13l1 7 2 2h-5l-1-1z" fill="#FDFDFD"/>
<path transform="translate(976,778)" d="m0 0 5 5 7 10 8 13 7 10 4 6 1 3 3 1-2 2-7-8-10-16-16-24z" fill="#FDFDFD"/>
<path transform="translate(1881,762)" d="m0 0 2 1-1 1-1 86h-1v-81h-3l2-4z" fill="#F0F7F2"/>
<path transform="translate(1661,894)" d="m0 0 3 1-12 6-13 3h-20l-5-1v-1l25-1 16-5z" fill="#48AB7F"/>
<path transform="translate(643,813)" d="m0 0h2l4 6-6 2-2 3-1 12-4 1v8l-3-2 2-9 6-16z" fill="#FDFDFD"/>
<path transform="translate(127,893)" d="m0 0 3 1-14 7-11 3h-21l-5-1v-1l25-1 12-3 10-4z" fill="#47AA7F"/>
<path transform="translate(1277,325)" d="m0 0 4 1v2h2l1 6-5 2v3h-2v2h-2v-7-3l1-5z" fill="#74BB7A"/>
<path transform="translate(663,761)" d="m0 0 4 1 2 6 3 2 1 13 3 2v10l-2-3-9-26z" fill="#FDFDFD"/>
<path transform="translate(1387,808)" d="m0 0h2v2h2l2 17 3 3 1 3 4 2-2 1-1 5-3-3-3-8-3-12z" fill="#FDFDFD"/>
<path transform="translate(1210,791)" d="m0 0h31l2 2-17 1-9 1-7-3z" fill="#FDFDFD"/>
<path transform="translate(138,782)" d="m0 0 4 5-5 5-18 10-5 3v-3l15-9 8-4 1-3z" fill="#4CAC7E"/>
<path transform="translate(204,45)" d="m0 0h11l4 1v2l-4 2h-10l-4-4z" fill="#FDFDFD"/>
<path transform="translate(202,527)" d="m0 0h17l1 3-2 1h-14l-3-3z" fill="#FDFDFD"/>
<path transform="translate(363,527)" d="m0 0h18l-1 3-2 1h-13z" fill="#FDFDFD"/>
<path transform="translate(281,527)" d="m0 0h18v3l-4 1h-11l-3-2z" fill="#FDFDFD"/>
<path transform="translate(695,845)" d="m0 0 1 2 4 1 1 9 3 1v12l-2-2-7-20z" fill="#FDFDFD"/>
<path transform="translate(476,864)" d="m0 0 2 1-2 5-8 10-8 8-5 2 6-7 6-5 8-11z" fill="#44A97F"/>
<path transform="translate(122,527)" d="m0 0h16l3 2-6 2h-11z" fill="#FDFDFD"/>
<path transform="translate(370,124)" d="m0 0 7 1 2 1-1 3h-13l-2-1v-2z" fill="#FDFDFD"/>
<path transform="translate(1103,453)" d="m0 0 4 1 26 8-4 1-21-5-5-3z" fill="#FDFDFD"/>
<path transform="translate(204,125)" d="m0 0h11l4 2-1 2-9 1-6-2z" fill="#FDFDFD"/>
<path transform="translate(1822,768)" d="m0 0 5 3 9 10 4 6v7l-2-2-6-12-8-9-2-1z" fill="#F9FBFA"/>
<path transform="translate(444,527)" d="m0 0h15l1 2-5 2h-9l-3-3z" fill="#FDFDFD"/>
<path transform="translate(1680,778)" d="m0 0 5 3 7 8 3 5 1 1v6l-2-1-6-12-6-7-2-1z" fill="#F9FBFA"/>
<path transform="translate(1736,895)" d="m0 0h1v5l28-1 2-4v5l-1 1h-31l-3-3 4-1z" fill="#70BD99"/>
<path transform="translate(203,366)" d="m0 0h16v3l-9 1-7-1z" fill="#FDFDFD"/>
<path transform="translate(374,770)" d="m0 0 2 1-17 17h-2l2-4 11-11z" fill="#8EC1AB"/>
<path transform="translate(47,205)" d="m0 0h8l3 2v2h-14v-3z" fill="#FDFDFD"/>
<path transform="translate(284,125)" d="m0 0h11l3 3-2 1h-10l-3-1z" fill="#FDFDFD"/>
<path transform="translate(124,125)" d="m0 0h10l4 3-2 1h-11l-2-1z" fill="#FDFDFD"/>
<path transform="translate(704,870)" d="m0 0 4 1 1 9 3 2v6l-2 1-6-16z" fill="#FDFDFD"/>
<path transform="translate(47,285)" d="m0 0 11 1v3h-13l-1-3z" fill="#FDFDFD"/>
<path transform="translate(44,527)" d="m0 0h10l4 2-3 2h-9l-3-3z" fill="#FDFDFD"/>
<path transform="translate(124,366)" d="m0 0h14l2 2-2 1h-15l-1-2z" fill="#FDFDFD"/>
<path transform="translate(129,205)" d="m0 0 7 1 3 3h-15v-3z" fill="#FDFDFD"/>
<path transform="translate(1651,124)" d="m0 0h9l2 3-1 1h-11l-2-1v-2z" fill="#FDFDFD"/>
<path transform="translate(283,366)" d="m0 0h15l1 2-2 1h-14z" fill="#FDFDFD"/>
<path transform="translate(973,34)" d="m0 0 13 2h1v5h-3v-2h-8l-3-3z" fill="#3B8776"/>
<path transform="translate(528,527)" d="m0 0h8l3 1v2l-2 1h-8l-5-2z" fill="#FDFDFD"/>
<path transform="translate(47,366)" d="m0 0 11 1v2l-3 1h-9l-3-1v-2z" fill="#FDFDFD"/>
<path transform="translate(1476,824)" d="m0 0 4 2v9l6 1 2-1-1 3-6 1-3-5z" fill="#FDFDFD"/>
<path transform="translate(198,773)" d="m0 0 2 1-13 13h-2l-1 4-2-1 4-6h2l2-4z" fill="#84BEA7"/>
<path transform="translate(364,366)" d="m0 0h14v3h-13z" fill="#FDFDFD"/>
<path transform="translate(204,286)" d="m0 0h15l-1 3h-12l-2-1z" fill="#FDFDFD"/>
<path transform="translate(1814,124)" d="m0 0 7 1v3l-4 1-7-1v-3z" fill="#FDFDFD"/>
<path transform="translate(448,850)" d="m0 0h7l9 6h-3l-7-4-5 1-4 5-1-5z" fill="#C2DED4"/>
<path transform="translate(469,798)" d="m0 0 3 1-19 10-4 1 3-4z" fill="#4BAC7E"/>
<path transform="translate(125,286)" d="m0 0h13v3h-13z" fill="#FDFDFD"/>
<path transform="translate(1524,760)" d="m0 0h12l3 1-1 8-2 4-1-2 1-9-12-1z" fill="#7FC4A4"/>
<path transform="translate(204,206)" d="m0 0h11l3 3h-14z" fill="#FDFDFD"/>
<path transform="translate(449,125)" d="m0 0 8 1 1 2-2 1h-8l-4-2v-1z" fill="#FDFDFD"/>
<path transform="translate(1374,761)" d="m0 0 5 2 1 2v13l-2-3-2-12h-2z" fill="#F7FAF9"/>
<path transform="translate(964,761)" d="m0 0 4 1 7 10 1 1v5l-4-5-7-10z" fill="#FDFDFD"/>
<path transform="translate(1275,201)" d="m0 0 1 2h5l1 9-3-3v-2h-3l-2-5z" fill="#74BB7A"/>
<path transform="translate(284,206)" d="m0 0h10l3 1v2h-12l-2-2z" fill="#FDFDFD"/>
<path transform="translate(294,878)" d="m0 0 3 1-10 10-4 1 6-7z" fill="#4FAD7E"/>
<path transform="translate(981,324)" d="m0 0 6 2 1 6 4 2-1 3-5-6-2-5h-7z" fill="#E7F3EE"/>
<path transform="translate(284,286)" d="m0 0h12v3h-10l-3-2z" fill="#FDFDFD"/>
<path transform="translate(65,854)" d="m0 0h6l1 5 4 1v6l-8-10z" fill="#FDFDFD"/>
<path transform="translate(1815,366)" d="m0 0 8 1-1 3h-8l-2-1v-2z" fill="#FDFDFD"/>
<path transform="translate(1836,877)" d="m0 0 4 2 1 4 3 2v6l-3-3-5-9z" fill="#FDFDFD"/>
<path transform="translate(1730,125)" d="m0 0h10l1 3h-10l-3-2z" fill="#FDFDFD"/>
<path transform="translate(1489,125)" d="m0 0h11v3h-10l-2-2z" fill="#FDFDFD"/>
<path transform="translate(1810,527)" d="m0 0h12l-1 3h-8l-3-1z" fill="#FDFDFD"/>
<path transform="translate(1491,45)" d="m0 0 9 1v2l-6 1-6-2z" fill="#FDFDFD"/>
<path transform="translate(989,40)" d="m0 0 2 1 5 5-1 2-7-3-2-3h3z" fill="#3B8776"/>
<path transform="translate(125,447)" d="m0 0 9 1 1 2-7 1-5-1v-2z" fill="#FDFDFD"/>
<path transform="translate(44,126)" d="m0 0h11v3h-8l-3-1z" fill="#FDFDFD"/>
<path transform="translate(1570,125)" d="m0 0h10v3h-10z" fill="#FDFDFD"/>
<path transform="translate(124,46)" d="m0 0h12l1 2-9 1-4-1z" fill="#FDFDFD"/>
<path transform="translate(1488,527)" d="m0 0h11v3h-7l-4-2z" fill="#FDFDFD"/>
<path transform="translate(476,864)" d="m0 0 2 1-2 5-5 7-2-2 6-8z" fill="#48AB7F"/>
<path transform="translate(1411,125)" d="m0 0h8l1 3h-9z" fill="#FDFDFD"/>
<path transform="translate(978,47)" d="m0 0 6 1v4l-5-1z" fill="#3B8776"/>
<path transform="translate(124,796)" d="m0 0m-2 1h2l-1 3-9 5v-3z" fill="#48AB7F"/>
<path transform="translate(124,608)" d="m0 0h11l1 2-7 1-5-2z" fill="#FDFDFD"/>
<path transform="translate(971,193)" d="m0 0 2 1-9 9-3 1 2-4z" fill="#A7CFBB"/>
<path transform="translate(685,528)" d="m0 0h15l-2 2h-10z" fill="#FDFDFD"/>
<path transform="translate(286,447)" d="m0 0 8 1-1 2h-9l-1-2z" fill="#FDFDFD"/>
<path transform="translate(364,207)" d="m0 0h12l1 2h-11z" fill="#FDFDFD"/>
<path transform="translate(203,448)" d="m0 0h11v2h-11z" fill="#FDFDFD"/>
<path transform="translate(606,528)" d="m0 0h11l-1 2h-10z" fill="#FDFDFD"/>
<path transform="translate(45,608)" d="m0 0h8l2 2h-8z" fill="#FDFDFD"/>
<path transform="translate(605,609)" d="m0 0h9l-1 2-8-1z" fill="#FDFDFD"/>
<path transform="translate(45,448)" d="m0 0h7v2h-7z" fill="#FDFDFD"/>
<path transform="translate(367,286)" d="m0 0 8 1-4 2-4-1z" fill="#FDFDFD"/>
<path transform="translate(448,608)" d="m0 0 5 1-1 2-6-1z" fill="#FDFDFD"/>
<path transform="translate(447,367)" d="m0 0h7l-4 2z" fill="#FDFDFD"/>
<path transform="translate(1181,875)" d="m0 0h2v5l-2-2z" fill="#FDFDFD"/>
<path transform="translate(1414,527)" d="m0 0 5 1v1h-7z" fill="#FDFDFD"/>
<path transform="translate(528,127)" d="m0 0h7v1h-7z" fill="#FDFDFD"/>
<path transform="translate(1652,528)" d="m0 0h5v1h-5z" fill="#FDFDFD"/>
<path transform="translate(128,689)" d="m0 0 4 1z" fill="#FDFDFD"/>
<path transform="translate(1491,609)" d="m0 0 4 1z" fill="#FDFDFD"/>
<path transform="translate(1813,207)" d="m0 0 4 1z" fill="#FDFDFD"/>
<path transform="translate(1573,528)" d="m0 0 3 1z" fill="#FDFDFD"/>
<path transform="translate(448,207)" d="m0 0 3 1z" fill="#FDFDFD"/>
<path transform="translate(1877,850)" d="m0 0" fill="#FDFDFD"/>
<path transform="translate(1182,896)" d="m0 0" fill="#FDFDFD"/>
<path transform="translate(849,609)" d="m0 0" fill="#FDFDFD"/>
<path transform="translate(1473,126)" d="m0 0" fill="#FDFDFD"/>
</svg>
